<svg id="Calque_1" data-name="Calque 1" xmlns="http://www.w3.org/2000/svg" viewBox="0 0 1000 1000"><defs><style>.cls-1{fill:#fff;}</style></defs><path class="cls-1" d="M587.13,461.17a101.76,101.76,0,0,0-53.59-53.59,99.52,99.52,0,0,0-78,0A100.78,100.78,0,0,0,423.7,429.2a103.88,103.88,0,0,0-21.49,32A96.13,96.13,0,0,0,394.35,496H447a51.06,51.06,0,0,1,13.74-30.67A50.92,50.92,0,0,1,476,454.41a43.91,43.91,0,0,1,37.14,0,52.67,52.67,0,0,1,15.39,10.87,48.67,48.67,0,0,1,10.35,15.92,50.41,50.41,0,0,1-10.35,54,51.5,51.5,0,0,1-15.39,11,43.19,43.19,0,0,1-18.57,4.11h-.34v50.41h.34a96.89,96.89,0,0,0,39-8,101.83,101.83,0,0,0,53.59-53.6,99.52,99.52,0,0,0,0-78Z"/><path class="cls-1" d="M374.43,443.82a79.33,79.33,0,0,0-16.21-24,74.87,74.87,0,0,0-53.52-22.08H270.63v51.1c1.52,0,30.32.32,30.32.32a24.43,24.43,0,0,1,10.39,2.09,23.75,23.75,0,0,1,7.58,5.42,22.06,22.06,0,0,1,4.64,7.63,26.32,26.32,0,0,1-3.37,24.18q-4.92,6.8-15.59,6.8l-92.13.7v99.63a6.53,6.53,0,0,0,1.94,4.76,6.45,6.45,0,0,0,4.73,1.95H260.9a7,7,0,0,0,5-2,6.48,6.48,0,0,0,1.87-4.67V554.16a7,7,0,0,1,2-5,6.48,6.48,0,0,1,4.68-1.88h24.38q20.44,0,35.72-5.73a72.55,72.55,0,0,0,25.5-15.65,62.88,62.88,0,0,0,15.27-23.47,83.15,83.15,0,0,0,5-29.21A72.19,72.19,0,0,0,374.43,443.82Z"/><path class="cls-1" d="M751,534.11a56.46,56.46,0,0,1-12.45,10,50.78,50.78,0,0,1-26.47,7,43.4,43.4,0,0,1-19-4.27,53,53,0,0,1-15.56-11.2,50.14,50.14,0,0,1-10.38-16.14,51.77,51.77,0,0,1,0-38.54,51.55,51.55,0,0,1,25.94-27.73,43.4,43.4,0,0,1,19-4.27q15.42,0,26.33,6.52a52,52,0,0,1,11.73,9.68l36.51-36.52a96.37,96.37,0,0,0-17.38-14,97.81,97.81,0,0,0-25.54-11.17,116.21,116.21,0,0,0-31.65-4,100.27,100.27,0,0,0-39.91,8A106.39,106.39,0,0,0,639.63,429a99,99,0,0,0-22,31.92,99.8,99.8,0,0,0,0,78.21,99,99,0,0,0,22,31.92,106.39,106.39,0,0,0,32.58,21.55,100.27,100.27,0,0,0,39.91,8,114.91,114.91,0,0,0,31.12-4,100.11,100.11,0,0,0,25.67-11.11,97.45,97.45,0,0,0,18.62-14.94Z"/></svg>